# xmcd
#
# Track frame offsets: 
#        167
#        18467
#        31080
#        56462
#        83050
#        90005
#        112367
#        126832
#        143882
#        152927
#        167635
#        180467
#        195320
#        206897
#        227015
#        244212
#        264787
#        274312
#
# Disc length: 3850 seconds
#
# Revision: 0
# Processed by: cddbd v1.5.1PL2 Copyright (c) Steve Scherf et al.
# Submitted via: ExactAudioCopy v0.95b4
#
DISCID=ee0f0812
DTITLE=Rock Színház Társulata - Musical Korong
DYEAR=1900
DGENRE=Musical
TTITLE0=Jézus Krisztus Szupersztár - Szupersztár
TTITLE1=Jézus Krisztus Szupersztár - Kezdhetnénk-e újból
TTITLE2=Jézus Krisztus Szupersztár - Pilátus és Krisztus
TTITLE3=Jézus Krisztus Szupersztár - Gethsemane
TTITLE4=Evita - Csillagfény tüzes éjjelén
TTITLE5=Evita - Miért kell, hogy sírj, Argentína
TTITLE6=Evita - Ó milyen cirkusz
TTITLE7=Sztárcsinálók - Történelmi lecke császárfiúknak
TTITLE8=Sztárcsinálók - Fekete könnyeket sír az ég
TTITLE9=Sztárcsinálók - Róma égése
TTITLE10=A nyomorultak - Vidd haza
TTITLE11=A nyomorultak - Üres szék, üres asztal
TTITLE12=Sakk - A mérkõzésvezetõ
TTITLE13=Sakk - Oly jól ismerem õt
TTITLE14=Sakk - Egy éjszaka Bangkokban
TTITLE15=Miss Saigon - Egy éj, s vele az élet múlik el
TTITLE16=Hair - Megszültél
TTITLE17=Hair - Jöjj el napfény
EXTD=
EXTT0=
EXTT1=
EXTT2=
EXTT3=
EXTT4=
EXTT5=
EXTT6=
EXTT7=
EXTT8=
EXTT9=
EXTT10=
EXTT11=
EXTT12=
EXTT13=
EXTT14=
EXTT15=
EXTT16=
EXTT17=
PLAYORDER=
